<!--?xml version="1.0" encoding="utf-8"?-->
<!-- Generator: Adobe Illustrator 18.1.1, SVG Export Plug-In . SVG Version: 6.00 Build 0)  -->

<svg version="1.1" id="_x32_" xmlns="http://www.w3.org/2000/svg" xmlns:xlink="http://www.w3.org/1999/xlink" x="0px" y="0px" viewBox="0 0 512 512" style="width: 256px; height: 256px; opacity: 1;" xml:space="preserve">
<style type="text/css">
	.st0{fill:#4B4B4B;}
</style>
<g>
	<path class="st0" d="M256,120.467c18.029,0,32.632-14.602,32.632-32.625c0-18.022-14.602-32.625-32.632-32.625
		c-18.015,0-32.618,14.604-32.618,32.625C223.382,105.864,237.985,120.467,256,120.467z" style="fill: rgb(238, 145, 29);"></path>
	<path class="st0" d="M456.397,215.835h-88.338l-0.03-0.03l-67.838-110.154c-3.088,7.676-8.132,14.382-14.53,19.426l55.868,90.728
		l0.015,0.03h-171.03l0.015-0.03l55.794-90.728c-6.397-5.044-11.441-11.75-14.529-19.426l-67.838,110.154l-0.029,0.037H55.618
		C24.897,215.849,0.014,240.732,0,271.452v129.721c0.014,30.721,24.897,55.603,55.618,55.61l400.779-0.007
		c30.721,0,55.603-24.882,55.603-55.603V271.452C512,240.732,487.118,215.849,456.397,215.835z M481.882,401.173
		c0,7.088-2.824,13.368-7.456,18.029c-4.662,4.633-10.941,7.456-18.029,7.456l-400.779,0.006c-7.088-0.006-13.368-2.83-18.03-7.463
		c-4.632-4.662-7.456-10.941-7.47-18.029V271.452c0.014-7.088,2.838-13.368,7.47-18.03c4.662-4.632,10.942-7.456,18.03-7.463
		l400.779-0.007c7.088,0.014,13.368,2.838,18.029,7.47c4.633,4.662,7.456,10.942,7.456,18.03V401.173z" style="fill: rgb(238, 145, 29);"></path>
	<path class="st0" d="M148.029,302.136c-13.838,0-24.235,6.624-28.368,19.39c-1.662,4.963-2.132,9.456-2.132,22.103
		c0,12.655,0.471,17.148,2.132,22.11c4.133,12.772,14.53,19.39,28.368,19.39c13.956,0,24.353-6.618,28.486-19.39
		c1.662-4.962,2.132-9.455,2.132-22.11c0-12.647-0.47-17.14-2.132-22.103C172.382,308.761,161.985,302.136,148.029,302.136z
		 M163.044,362.07c-2.25,6.508-6.97,10.53-15.015,10.53c-7.926,0-12.647-4.022-14.897-10.53c-0.941-2.956-1.412-7.088-1.412-18.441
		c0-11.464,0.47-15.485,1.412-18.441c2.25-6.5,6.971-10.515,14.897-10.515c8.045,0,12.765,4.015,15.015,10.515
		c0.941,2.956,1.412,6.978,1.412,18.441C164.455,354.982,163.985,359.114,163.044,362.07z" style="fill: rgb(238, 145, 29);"></path>
	<path class="st0" d="M225.367,303.438H195.22c-0.706,0-1.177,0.47-1.177,1.177v78.029c0,0.706,0.47,1.184,1.177,1.184h11.588
		c0.706,0,1.177-0.478,1.177-1.184v-28.485c0-0.478,0.235-0.713,0.721-0.713h16.662c15.603,0,26.486-10.051,26.486-25.066
		C251.853,313.482,240.97,303.438,225.367,303.438z M224.544,340.791h-15.838c-0.486,0-0.721-0.236-0.721-0.706v-23.412
		c0-0.471,0.235-0.706,0.721-0.706h15.838c8.265,0,13.354,5.088,13.354,12.412C237.897,335.835,232.809,340.791,224.544,340.791z" style="fill: rgb(238, 145, 29);"></path>
	<path class="st0" d="M316.294,303.438h-50.353c-0.721,0-1.191,0.47-1.191,1.177v78.029c0,0.706,0.47,1.184,1.191,1.184h50.353
		c0.706,0,1.191-0.478,1.191-1.184v-10.162c0-0.713-0.486-1.191-1.191-1.191h-36.883c-0.47,0-0.706-0.235-0.706-0.706v-20.331
		c0-0.478,0.235-0.713,0.706-0.713H310.5c0.72,0,1.191-0.47,1.191-1.177v-10.169c0-0.713-0.47-1.184-1.191-1.184h-31.088
		c-0.47,0-0.706-0.235-0.706-0.706v-19.633c0-0.471,0.235-0.706,0.706-0.706h36.883c0.706,0,1.191-0.47,1.191-1.177v-10.176
		C317.485,303.908,317,303.438,316.294,303.438z" style="fill: rgb(238, 145, 29);"></path>
	<path class="st0" d="M390.911,303.438h-10.279c-0.72,0-1.191,0.47-1.191,1.177v55.456h-0.47l-32.75-55.456
		c-0.47-0.824-1.059-1.177-2-1.177h-10.882c-0.706,0-1.176,0.47-1.176,1.177v78.029c0,0.706,0.47,1.184,1.176,1.184h10.28
		c0.72,0,1.191-0.478,1.191-1.184V327.32h0.47l32.868,55.323c0.47,0.831,1.058,1.184,2.015,1.184h10.75
		c0.706,0,1.177-0.478,1.177-1.184v-78.029C392.088,303.908,391.618,303.438,390.911,303.438z" style="fill: rgb(238, 145, 29);"></path>
</g>
</svg>
