<svg xmlns="http://www.w3.org/2000/svg" viewBox="0 0 98.14 128"><defs><style>.cls-1{fill:#1d5fff;}</style></defs><title>phone</title><g id="レイヤー_2" data-name="レイヤー 2"><g id="_1" data-name="1"><path class="cls-1" d="M8.77,5.42C0,11.13-1.75,29,1.57,43.49A131.32,131.32,0,0,0,18.93,84.28a136.25,136.25,0,0,0,30.16,32.48c11.92,9,28.9,14.65,37.7,8.95,4.45-2.88,11-10.76,11.35-12.18l-4.72-7.28-13-20c-1-1.49-7-.12-10.1,1.62-4.15,2.35-8,8.66-8,8.66-2.85,1.64-5.23,0-10.21-2.29-6.12-2.81-13-11.56-18.47-19.49-5-8.23-10.19-18.08-10.26-24.81-.06-5.48-.59-8.33,2.08-10.25,0,0,7.31-.92,11.15-3.75,2.85-2.1,6.56-7.07,5.59-8.56l-13-20L24.53,0C23.11-.28,13.22,2.54,8.77,5.42Z"/></g></g></svg>